# xmcd
#
# Track frame offsets:
#	150
#	15121
#	26904
#	48178
#	62630
#	74093
#	84424
#	97348
#	106898
#	118266
#	131253
#	140478
#	150974
#	164581
#	175550
#	187592
#	199360
#	211520
#	226681
#	242692
#	256873
#	271797
#	284604
#
# Disc length: 3984 seconds
#
# Revision: 0
# Processed by: cddbd v1.5.2PL0 Copyright (c) Steve Scherf et al.
# Submitted via: EasyCDDAExtractor 16.0.8.1
#
DISCID=320f8e17
DTITLE=Tonico e Tinoco - Tonico e Tinoco - 2018 - Grandes Sucessos Vol. 3
DYEAR=2018
DGENRE=Sertanejo
TTITLE0=Paineira Velha
TTITLE1=Mamãe, Mamãe, Mamãe
TTITLE2=Lembranças
TTITLE3=Chçao De Goiás
TTITLE4=Tudo Tem No Sertão
TTITLE5=Dom De Deus
TTITLE6=História De Minha Vida
TTITLE7=Arroz A Carreteira
TTITLE8=Boiadeiro Triste
TTITLE9=Moeninha
TTITLE10=Parabéns, Parabéns
TTITLE11=Rancho Da Palha
TTITLE12=Campeiro
TTITLE13=Mãe Preta Maria
TTITLE14=As Mão Do Papai
TTITLE15=São Paulo Gigante
TTITLE16=Burro Picaço
TTITLE17=Recado
TTITLE18=Cavalo Branco
TTITLE19=Retalhos De Amor
TTITLE20=A Carta
TTITLE21=Três Batidas Na Porteira
TTITLE22=A Mão Do Tempo
EXTD=
EXTT0=
EXTT1=
EXTT2=
EXTT3=
EXTT4=
EXTT5=
EXTT6=
EXTT7=
EXTT8=
EXTT9=
EXTT10=
EXTT11=
EXTT12=
EXTT13=
EXTT14=
EXTT15=
EXTT16=
EXTT17=
EXTT18=
EXTT19=
EXTT20=
EXTT21=
EXTT22=
PLAYORDER=
